<?xml version="1.0" encoding="UTF-8" standalone="no"?>
<!-- Created with Inkscape (http://www.inkscape.org/) -->

<svg
   xmlns:dc="http://purl.org/dc/elements/1.1/"
   xmlns:cc="http://creativecommons.org/ns#"
   xmlns:rdf="http://www.w3.org/1999/02/22-rdf-syntax-ns#"
   xmlns:svg="http://www.w3.org/2000/svg"
   xmlns="http://www.w3.org/2000/svg"
   xmlns:sodipodi="http://sodipodi.sourceforge.net/DTD/sodipodi-0.dtd"
   xmlns:inkscape="http://www.inkscape.org/namespaces/inkscape"
   width="432.33362mm"
   height="327.49429mm"
   viewBox="0 0 432.33362 327.49429"
   version="1.1"
   id="svg20"
   inkscape:version="0.92.2 5c3e80d, 2017-08-06"
   sodipodi:docname="tagmaru-pc.svg">
  <defs
     id="defs14">
    <inkscape:perspective
       sodipodi:type="inkscape:persp3d"
       inkscape:vp_x="0 : 250 : 1"
       inkscape:vp_y="0 : 1000 : 0"
       inkscape:vp_z="500 : 250 : 1"
       inkscape:persp3d-origin="250 : 166.66667 : 1"
       id="perspective28" />
  </defs>
  <sodipodi:namedview
     id="base"
     pagecolor="#ffffff"
     bordercolor="#666666"
     borderopacity="1.0"
     inkscape:pageopacity="0"
     inkscape:pageshadow="2"
     inkscape:zoom="0.30532917"
     inkscape:cx="886.68739"
     inkscape:cy="814.3566"
     inkscape:document-units="mm"
     inkscape:current-layer="layer3"
     showgrid="false"
     showborder="true"
     inkscape:pagecheckerboard="true"
     inkscape:measure-start="0,0"
     inkscape:measure-end="0,0"
     showguides="false"
     inkscape:window-width="1440"
     inkscape:window-height="795"
     inkscape:window-x="56"
     inkscape:window-y="1"
     inkscape:window-maximized="0"
     fit-margin-top="0"
     fit-margin-left="0"
     fit-margin-right="0"
     fit-margin-bottom="0" />
  <metadata
     id="metadata17">
    <rdf:RDF>
      <cc:Work
         rdf:about="">
        <dc:format>image/svg+xml</dc:format>
        <dc:type
           rdf:resource="http://purl.org/dc/dcmitype/StillImage" />
        <dc:title></dc:title>
      </cc:Work>
    </rdf:RDF>
  </metadata>
  <g
     inkscape:groupmode="layer"
     id="layer3"
     inkscape:label="line"
     transform="translate(-15.397295,-137.97088)">
    <rect
       transform="matrix(0.88068377,0.47370465,-0.88273342,0.46987415,0,0)"
       ry="0"
       style="opacity:1;fill:#eed7f4;stroke-width:0.25077266"
       y="296.89539"
       x="384.39813"
       height="5"
       width="147.12019"
       id="rect377" />
    <ellipse
       style="fill:#eed7f4;fill-opacity:1;stroke-width:0.26836437"
       id="path380"
       cx="-332.73273"
       cy="21.168924"
       rx="7.8519139"
       ry="12.203917"
       transform="matrix(-0.17166179,-0.98515594,0.99786835,-0.06525915,0,0)" />
    <rect
       id="rect384"
       width="147.12019"
       height="5"
       x="-274.80707"
       y="-561.39923"
       style="opacity:1;fill:#ccffaa;stroke-width:0.25077266"
       ry="0"
       transform="matrix(0.88068377,-0.47370465,-0.88273342,-0.46987415,0,0)" />
    <ellipse
       transform="matrix(-0.17166179,-0.98515594,0.99786835,-0.06525915,0,0)"
       ry="12.203917"
       rx="7.8519139"
       cy="322.32632"
       cx="-348.70731"
       id="ellipse386"
       style="fill:#ccffaa;fill-opacity:1;stroke-width:0.26836437" />
    <rect
       style="fill:#eed7f4;fill-opacity:1;stroke-width:0.10925041"
       id="rect4984"
       width="1.2602416"
       height="7.2444305"
       x="77.748489"
       y="272.37961"
       ry="0.63012081"
       rx="0.63012081" />
    <rect
       ry="0.63012081"
       y="283.49228"
       x="77.748489"
       height="7.2444305"
       width="1.2602416"
       id="rect4986"
       style="fill:#eed7f4;fill-opacity:1;stroke-width:0.10925041"
       rx="0.63012081" />
    <rect
       rx="0.63012081"
       style="fill:#eed7f4;fill-opacity:1;stroke-width:0.10925041"
       id="rect4988"
       width="1.2602416"
       height="7.2444305"
       x="77.748489"
       y="294.60495"
       ry="0.63012081" />
    <rect
       ry="0.63012081"
       y="304.1301"
       x="77.748489"
       height="7.2444305"
       width="1.2602416"
       id="rect4990"
       style="fill:#eed7f4;fill-opacity:1;stroke-width:0.10925041"
       rx="0.63012081" />
    <rect
       rx="0.63012081"
       style="fill:#eed7f4;fill-opacity:1;stroke-width:0.10925041"
       id="rect4992"
       width="1.2602416"
       height="7.2444305"
       x="77.748489"
       y="315.24277"
       ry="0.63012081" />
    <rect
       style="fill:#ccffaa;fill-opacity:1;stroke-width:0.24945155"
       id="rect5026"
       width="1.2855594"
       height="6.4277968"
       x="381.00766"
       y="308.6759"
       ry="0.63012111"
       rx="0.63012111" />
    <rect
       rx="0.63012111"
       ry="0.63012111"
       y="297.56323"
       x="381.00766"
       height="6.4277968"
       width="1.2855594"
       id="rect5030"
       style="fill:#ccffaa;fill-opacity:1;stroke-width:0.24945155" />
    <rect
       style="fill:#ccffaa;fill-opacity:1;stroke-width:0.24945155"
       id="rect5032"
       width="1.2855594"
       height="6.4277968"
       x="381.00766"
       y="286.45056"
       ry="0.63012111"
       rx="0.63012111" />
    <rect
       rx="0.63012111"
       ry="0.63012111"
       y="276.39624"
       x="381.00766"
       height="6.4277968"
       width="1.2855594"
       id="rect5034"
       style="fill:#ccffaa;fill-opacity:1;stroke-width:0.24945155" />
    <rect
       style="fill:#ccffaa;fill-opacity:1;stroke-width:0.24945155"
       id="rect5036"
       width="1.2855594"
       height="6.4277968"
       x="381.00766"
       y="276.39624"
       ry="0.63012111"
       rx="0.63012111" />
  </g>
  <g
     inkscape:groupmode="layer"
     id="layer4"
     inkscape:label="tag"
     transform="translate(-15.397295,-137.97088)">
    <rect
       style="opacity:1;fill:#e9ddaf;fill-opacity:1;stroke-width:0.28197128"
       id="rect394"
       width="144.91264"
       height="54.654228"
       x="238.81178"
       y="-127.8268"
       transform="matrix(0.88047108,0.47409984,0,1,0,203)"
       ry="4.5165219"
       rx="2.2582595" />
    <rect
       style="opacity:1;fill:#e9c6af;fill-opacity:1;stroke-width:0.27949375"
       id="rect388"
       width="4.4981017"
       height="28.792847"
       x="300.66251"
       y="-61.861507"
       transform="matrix(0.89615005,0.44375118,0,1,0,203)" />
  </g>
  <g
     inkscape:groupmode="layer"
     id="layer5"
     inkscape:label="post1"
     transform="translate(-15.397295,-137.97088)">
    <rect
       rx="1.8823893"
       ry="3.5258281"
       transform="matrix(-0.89881956,0.43831884,0.00222644,0.99999752,0,0)"
       y="207.61263"
       x="-150.43251"
       height="100.74472"
       width="133.81622"
       id="rect405"
       style="opacity:1;fill:#ececec;stroke-width:0.26345423" />
    <rect
       style="opacity:1;fill:#87de87;stroke-width:0.26345423"
       id="rect415"
       width="133.81622"
       height="15"
       x="-150.43253"
       y="207.61263"
       transform="matrix(-0.89881956,0.43831884,0.00222644,0.99999752,0,0)"
       ry="0"
       rx="0" />
    <rect
       style="opacity:1;fill:#b3b3b3;stroke-width:0.26345423"
       id="rect417"
       width="45"
       height="40"
       x="-146.26208"
       y="227.48056"
       transform="matrix(-0.89881956,0.43831884,0.00222644,0.99999752,0,0)"
       ry="3.5258281"
       rx="3.5258281" />
    <rect
       style="opacity:1;fill:#cccccc;stroke-width:0.26345423"
       id="rect419"
       width="120"
       height="3"
       x="-143.79565"
       y="272.43716"
       transform="matrix(-0.89881956,0.43831884,0.00222644,0.99999752,0,0)"
       ry="3.5258281"
       rx="1.8823893" />
    <rect
       rx="1.8823893"
       ry="3.5258281"
       transform="matrix(-0.89881956,0.43831884,0.00222644,0.99999752,0,0)"
       y="279.3089"
       x="-143.77861"
       height="3"
       width="120"
       id="rect421"
       style="opacity:1;fill:#cccccc;stroke-width:0.26345423" />
    <rect
       style="opacity:1;fill:#cccccc;stroke-width:0.26345423"
       id="rect423"
       width="120"
       height="3"
       x="-143.75897"
       y="287.23782"
       transform="matrix(-0.89881956,0.43831884,0.00222644,0.99999752,0,0)"
       ry="3.5258281"
       rx="1.8823893" />
    <rect
       rx="1.8823893"
       ry="3.5258281"
       transform="matrix(-0.89881956,0.43831884,0.00222644,0.99999752,0,0)"
       y="294.63815"
       x="-143.74063"
       height="3"
       width="120"
       id="rect425"
       style="opacity:1;fill:#cccccc;stroke-width:0.26345423" />
    <rect
       style="opacity:1;fill:#cccccc;stroke-width:0.26345423"
       id="rect427"
       width="120"
       height="3"
       x="-143.72621"
       y="300.4527"
       transform="matrix(-0.89881956,0.43831884,0.00222644,0.99999752,0,0)"
       ry="3.5258281"
       rx="1.8823893" />
    <rect
       rx="1.8823893"
       ry="3.5258281"
       transform="matrix(-0.89881956,0.43831884,0.00222644,0.99999752,0,0)"
       y="228.58295"
       x="-94.4505"
       height="3"
       width="70"
       id="rect429"
       style="opacity:1;fill:#cccccc;stroke-width:0.26345423" />
    <rect
       style="opacity:1;fill:#cccccc;stroke-width:0.26345423"
       id="rect431"
       width="70"
       height="3"
       x="-94.433472"
       y="235.45468"
       transform="matrix(-0.89881956,0.43831884,0.00222644,0.99999752,0,0)"
       ry="3.5258281"
       rx="1.8823893" />
    <rect
       rx="1.8823893"
       ry="3.5258281"
       transform="matrix(-0.89881956,0.43831884,0.00222644,0.99999752,0,0)"
       y="242.32642"
       x="-94.416443"
       height="3"
       width="70"
       id="rect433"
       style="opacity:1;fill:#cccccc;stroke-width:0.26345423" />
    <rect
       style="opacity:1;fill:#cccccc;stroke-width:0.26345423"
       id="rect435"
       width="70"
       height="3"
       x="-94.398087"
       y="249.72675"
       transform="matrix(-0.89881956,0.43831884,0.00222644,0.99999752,0,0)"
       ry="3.5258281"
       rx="1.8823893" />
    <rect
       rx="1.8823893"
       ry="3.5258281"
       transform="matrix(-0.89881956,0.43831884,0.00222644,0.99999752,0,0)"
       y="256.06989"
       x="-94.38237"
       height="3"
       width="70"
       id="rect437"
       style="opacity:1;fill:#cccccc;stroke-width:0.26345423" />
    <rect
       style="opacity:1;fill:#cccccc;stroke-width:0.26345423"
       id="rect439"
       width="70"
       height="3"
       x="-94.363998"
       y="263.47021"
       transform="matrix(-0.89881956,0.43831884,0.00222644,0.99999752,0,0)"
       ry="3.5258281"
       rx="1.8823893" />
  </g>
  <g
     inkscape:label="レイヤー 1"
     inkscape:groupmode="layer"
     id="layer1"
     transform="translate(-15.397295,65.029117)"
     style="opacity:1">
    <rect
       id="rect46"
       width="147.12019"
       height="81.525711"
       x="275.9375"
       y="50.55389"
       style="fill:#999999;stroke-width:0.25077266"
       ry="0"
       transform="matrix(0.88068377,0.47370464,-0.88273342,0.46987415,0,0)" />
    <rect
       transform="matrix(0.8813614,0.47244267,-0.04054812,0.99917759,0,0)"
       y="-43.531078"
       x="226.73138"
       height="91.244629"
       width="147"
       id="rect218"
       style="fill:#999999;stroke-width:0.26345423"
       ry="1.2821195"
       rx="1.2821195" />
    <rect
       transform="matrix(0.88068377,0.47370464,-0.88273342,0.46987415,0,0)"
       ry="1.6327908"
       style="fill:#cccccc;stroke-width:0.25077266"
       y="89.90654"
       x="320.1134"
       height="37"
       width="45"
       id="rect283"
       rx="1.6327908" />
    <rect
       style="fill:#d5f6ff;stroke-width:0.26345423"
       id="rect285"
       width="140"
       height="82"
       x="229.50694"
       y="-39.9207"
       transform="matrix(0.8813614,0.47244267,-0.04054812,0.99917759,0,0)"
       ry="3.5258281"
       rx="1.8823893" />
    <ellipse
       style="fill:#ffffff;fill-opacity:1;stroke-width:0.27864164"
       id="path396"
       cx="226.35512"
       cy="21.951225"
       rx="7.3393421"
       ry="8.6096125" />
  </g>
  <g
     inkscape:groupmode="layer"
     id="layer6"
     inkscape:label="post2"
     transform="translate(-15.397295,-137.97088)">
    <rect
       rx="1.8823893"
       ry="3.5258281"
       transform="matrix(0.9031381,0.42935018,0.00772775,0.99997014,0,0)"
       y="-1.4055642"
       x="355.02209"
       height="90"
       width="140"
       id="rect441"
       style="opacity:1;fill:#f2f2f2;stroke-width:0.26345423" />
    <rect
       rx="3.5258281"
       ry="3.5258281"
       transform="matrix(0.89881956,0.43831883,-0.00222644,0.99999752,0,0)"
       y="-1.3643698"
       x="365.14514"
       height="40"
       width="45"
       id="rect447"
       style="opacity:1;fill:#b3b3b3;stroke-width:0.26345423" />
    <rect
       rx="1.8823893"
       ry="3.5258281"
       transform="matrix(0.89881956,0.43831883,-0.00222644,0.99999752,0,0)"
       y="43.592232"
       x="367.61157"
       height="3"
       width="120"
       id="rect449"
       style="opacity:1;fill:#cccccc;stroke-width:0.26345423" />
    <rect
       style="opacity:1;fill:#cccccc;stroke-width:0.26345423"
       id="rect451"
       width="120"
       height="3"
       x="367.6286"
       y="50.463966"
       transform="matrix(0.89881956,0.43831883,-0.00222644,0.99999752,0,0)"
       ry="3.5258281"
       rx="1.8823893" />
    <rect
       rx="1.8823893"
       ry="3.5258281"
       transform="matrix(0.89881956,0.43831883,-0.00222644,0.99999752,0,0)"
       y="58.392891"
       x="367.64825"
       height="3"
       width="120"
       id="rect453"
       style="opacity:1;fill:#cccccc;stroke-width:0.26345423" />
    <rect
       style="opacity:1;fill:#cccccc;stroke-width:0.26345423"
       id="rect455"
       width="120"
       height="3"
       x="367.6666"
       y="65.793221"
       transform="matrix(0.89881956,0.43831883,-0.00222644,0.99999752,0,0)"
       ry="3.5258281"
       rx="1.8823893" />
    <rect
       rx="1.8823893"
       ry="3.5258281"
       transform="matrix(0.89881956,0.43831883,-0.00222644,0.99999752,0,0)"
       y="71.607765"
       x="367.681"
       height="3"
       width="120"
       id="rect457"
       style="opacity:1;fill:#cccccc;stroke-width:0.26345423" />
    <rect
       style="opacity:1;fill:#cccccc;stroke-width:0.26345423"
       id="rect459"
       width="70"
       height="3"
       x="416.95673"
       y="-0.26198354"
       transform="matrix(0.89881956,0.43831883,-0.00222644,0.99999752,0,0)"
       ry="3.5258281"
       rx="1.8823893" />
    <rect
       rx="1.8823893"
       ry="3.5258281"
       transform="matrix(0.89881956,0.43831883,-0.00222644,0.99999752,0,0)"
       y="6.6097517"
       x="416.97375"
       height="3"
       width="70"
       id="rect461"
       style="opacity:1;fill:#cccccc;stroke-width:0.26345423" />
    <rect
       style="opacity:1;fill:#cccccc;stroke-width:0.26345423"
       id="rect463"
       width="70"
       height="3"
       x="416.99078"
       y="13.481488"
       transform="matrix(0.89881956,0.43831883,-0.00222644,0.99999752,0,0)"
       ry="3.5258281"
       rx="1.8823893" />
    <rect
       rx="1.8823893"
       ry="3.5258281"
       transform="matrix(0.89881956,0.43831883,-0.00222644,0.99999752,0,0)"
       y="20.881817"
       x="417.00912"
       height="3"
       width="70"
       id="rect465"
       style="opacity:1;fill:#cccccc;stroke-width:0.26345423" />
    <rect
       style="opacity:1;fill:#cccccc;stroke-width:0.26345423"
       id="rect467"
       width="70"
       height="3"
       x="417.02484"
       y="27.224957"
       transform="matrix(0.89881956,0.43831883,-0.00222644,0.99999752,0,0)"
       ry="3.5258281"
       rx="1.8823893" />
    <rect
       rx="1.8823893"
       ry="3.5258281"
       transform="matrix(0.89881956,0.43831883,-0.00222644,0.99999752,0,0)"
       y="34.625278"
       x="417.04321"
       height="3"
       width="70"
       id="rect469"
       style="opacity:1;fill:#cccccc;stroke-width:0.26345423" />
    <rect
       rx="0"
       ry="0"
       transform="matrix(0.89881956,0.43831883,-0.00222644,0.99999752,0,0)"
       y="-18.431402"
       x="356.823"
       height="15"
       width="140"
       id="rect483"
       style="opacity:1;fill:#80b3ff;stroke-width:0.26345423" />
  </g>
  <g
     inkscape:groupmode="layer"
     id="layer2"
     inkscape:label="keyboard"
     transform="translate(-15.397295,-137.97088)">
    <rect
       transform="matrix(0.88320409,0.46898885,-0.87990583,0.47514811,0,0)"
       ry="1.8259442"
       style="fill:#ececec;stroke-width:0.2219049"
       y="271.12704"
       x="493.7562"
       height="32.054779"
       width="141.12881"
       id="rect58"
       rx="0.93533832" />
    <rect
       id="rect80"
       width="145"
       height="1.4890138"
       x="493.7562"
       y="269.63803"
       style="fill:#999999;stroke-width:0.2219049"
       ry="0"
       transform="matrix(0.88320409,0.46898885,-0.87990583,0.47514811,0,0)" />
    <rect
       transform="matrix(0.88320409,0.46898885,-0.87990583,0.47514811,0,0)"
       ry="0"
       style="fill:#999999;stroke-width:0.2219049"
       y="274.07379"
       x="491.89886"
       height="1.4"
       width="144"
       id="rect88" />
    <rect
       id="rect90"
       width="145"
       height="1.4890138"
       x="491.21643"
       y="267.69006"
       style="fill:#000000;fill-opacity:0;stroke-width:0.2219049"
       ry="0"
       transform="matrix(0.88320409,0.46898885,-0.87990583,0.47514811,0,0)" />
    <rect
       transform="matrix(0.88320409,0.46898885,-0.87990583,0.47514811,0,0)"
       ry="0"
       style="fill:#999999;stroke-width:0.2219049"
       y="281.01904"
       x="493.14072"
       height="1.4890138"
       width="132"
       id="rect92" />
    <rect
       id="rect94"
       width="145"
       height="1.4890138"
       x="492.57001"
       y="288.26422"
       style="fill:#999999;stroke-width:0.2219049"
       ry="0"
       transform="matrix(0.88320409,0.46898885,-0.87990583,0.47514811,0,0)" />
    <rect
       transform="matrix(0.88320409,0.46898885,-0.87990583,0.47514811,0,0)"
       ry="0"
       style="fill:#999999;stroke-width:0.2219049"
       y="295.47467"
       x="493.16293"
       height="1.4890138"
       width="145"
       id="rect96" />
    <rect
       id="rect98"
       width="18"
       height="1.3764513"
       x="284.75858"
       y="-637.72424"
       style="fill:#999999;stroke-width:0.21713743"
       ry="0"
       transform="matrix(-0.8868407,0.46207529,-0.88998358,-0.45599257,0,0)" />
    <rect
       transform="matrix(-0.8868407,0.46207529,-0.88998358,-0.45599257,0,0)"
       ry="0"
       style="fill:#999999;stroke-width:0.21713743"
       y="-514.96698"
       x="308.42172"
       height="1.3764513"
       width="8"
       id="rect100" />
    <rect
       id="rect113"
       width="8"
       height="1.3764513"
       x="308.42172"
       y="-514.96698"
       style="fill:#999999;stroke-width:0.21713743"
       ry="0"
       transform="matrix(-0.8868407,0.46207529,-0.88998358,-0.45599257,0,0)" />
    <rect
       transform="matrix(-0.8868407,0.46207529,-0.88998358,-0.45599257,0,0)"
       ry="0"
       style="fill:#999999;stroke-width:0.21713743"
       y="-523.23639"
       x="308.61343"
       height="1.3764513"
       width="8"
       id="rect126" />
    <rect
       id="rect139"
       width="8"
       height="1.3764513"
       x="307.9075"
       y="-533.2359"
       style="fill:#999999;stroke-width:0.21713743"
       ry="0"
       transform="matrix(-0.8868407,0.46207529,-0.88998358,-0.45599257,0,0)" />
    <rect
       transform="matrix(-0.8868407,0.46207529,-0.88998358,-0.45599257,0,0)"
       ry="0"
       style="fill:#999999;stroke-width:0.21713743"
       y="-545.53693"
       x="309.51114"
       height="1.3764513"
       width="8"
       id="rect141" />
    <rect
       id="rect143"
       width="8"
       height="1.3764513"
       x="309.45016"
       y="-574.61163"
       style="fill:#999999;stroke-width:0.21713743"
       ry="0"
       transform="matrix(-0.8868407,0.46207529,-0.88998358,-0.45599257,0,0)" />
    <rect
       transform="matrix(-0.8868407,0.46207529,-0.88998358,-0.45599257,0,0)"
       ry="0"
       style="fill:#999999;stroke-width:0.21713743"
       y="-585.4621"
       x="310.19485"
       height="1.3764513"
       width="8"
       id="rect145" />
    <rect
       id="rect147"
       width="8"
       height="1.3764513"
       x="309.75623"
       y="-597.51178"
       style="fill:#999999;stroke-width:0.21713743"
       ry="0"
       transform="matrix(-0.8868407,0.46207529,-0.88998358,-0.45599257,0,0)" />
    <rect
       id="rect149"
       width="8"
       height="1.3764513"
       x="309.89493"
       y="-610.13666"
       style="fill:#999999;stroke-width:0.21713743"
       ry="0"
       transform="matrix(-0.8868407,0.46207529,-0.88998358,-0.45599257,0,0)" />
    <rect
       transform="matrix(-0.8868407,0.46207529,-0.88998358,-0.45599257,0,0)"
       ry="0"
       style="fill:#999999;stroke-width:0.21713743"
       y="-619.5365"
       x="309.7807"
       height="1.3764513"
       width="8"
       id="rect151" />
    <rect
       transform="matrix(-0.8868407,0.46207529,-0.88998358,-0.45599257,0,0)"
       ry="0"
       style="fill:#999999;stroke-width:0.21713743"
       y="-628.91187"
       x="310.8356"
       height="1.3764513"
       width="8"
       id="rect153" />
    <rect
       id="rect155"
       width="8"
       height="1.3764513"
       x="310.72134"
       y="-638.31177"
       style="fill:#999999;stroke-width:0.21713743"
       ry="0"
       transform="matrix(-0.8868407,0.46207529,-0.88998358,-0.45599257,0,0)" />
    <rect
       id="rect166"
       width="9"
       height="1"
       x="-600.20728"
       y="-268.34961"
       style="fill:#999999;stroke-width:0.24290405"
       ry="0"
       transform="matrix(-0.86557601,-0.50077756,0.86189343,-0.50708946,0,0)" />
    <rect
       transform="matrix(-0.8868407,0.46207529,-0.88998358,-0.45599257,0,0)"
       ry="0"
       style="fill:#999999;stroke-width:0.21713743"
       y="-519.53632"
       x="300.47696"
       height="1.3764513"
       width="8"
       id="rect170" />
    <rect
       id="rect172"
       width="8"
       height="1.3764513"
       x="300.95438"
       y="-528.33661"
       style="fill:#999999;stroke-width:0.21713743"
       ry="0"
       transform="matrix(-0.8868407,0.46207529,-0.88998358,-0.45599257,0,0)" />
    <rect
       transform="matrix(-0.8868407,0.46207529,-0.88998358,-0.45599257,0,0)"
       ry="0"
       style="fill:#999999;stroke-width:0.21713743"
       y="-537.43646"
       x="301.13599"
       height="1.3764513"
       width="8"
       id="rect174" />
    <rect
       id="rect176"
       width="8"
       height="1.3764513"
       x="301.02176"
       y="-546.83612"
       style="fill:#999999;stroke-width:0.21713743"
       ry="0"
       transform="matrix(-0.8868407,0.46207529,-0.88998358,-0.45599257,0,0)" />
    <rect
       transform="matrix(-0.8868407,0.46207529,-0.88998358,-0.45599257,0,0)"
       ry="0"
       style="fill:#999999;stroke-width:0.21713743"
       y="-556.5116"
       x="301.78076"
       height="1.3764513"
       width="8"
       id="rect178" />
    <rect
       id="rect180"
       width="8"
       height="1.3764513"
       x="301.94812"
       y="-566.78662"
       style="fill:#999999;stroke-width:0.21713743"
       ry="0"
       transform="matrix(-0.8868407,0.46207529,-0.88998358,-0.45599257,0,0)" />
    <rect
       transform="matrix(-0.8868407,0.46207529,-0.88998358,-0.45599257,0,0)"
       ry="0"
       style="fill:#999999;stroke-width:0.21713743"
       y="-577.06146"
       x="302.11542"
       height="1.3764513"
       width="8"
       id="rect182" />
    <rect
       id="rect184"
       width="8"
       height="1.3764513"
       x="301.70541"
       y="-586.76111"
       style="fill:#999999;stroke-width:0.21713743"
       ry="0"
       transform="matrix(-0.8868407,0.46207529,-0.88998358,-0.45599257,0,0)" />
    <rect
       transform="matrix(-0.8868407,0.46207529,-0.88998358,-0.45599257,0,0)"
       ry="0"
       style="fill:#999999;stroke-width:0.21713743"
       y="-596.73639"
       x="302.16858"
       height="1.3764513"
       width="8"
       id="rect186" />
    <rect
       id="rect188"
       width="8"
       height="1.3764513"
       x="302.35016"
       y="-605.83649"
       style="fill:#999999;stroke-width:0.21713743"
       ry="0"
       transform="matrix(-0.8868407,0.46207529,-0.88998358,-0.45599257,0,0)" />
    <rect
       transform="matrix(-0.8868407,0.46207529,-0.88998358,-0.45599257,0,0)"
       ry="0"
       style="fill:#999999;stroke-width:0.21713743"
       y="-614.0614"
       x="302.25018"
       height="1.3764513"
       width="8"
       id="rect190" />
    <rect
       id="rect192"
       width="8"
       height="1.3764513"
       x="302.43179"
       y="-623.1615"
       style="fill:#999999;stroke-width:0.21713743"
       ry="0"
       transform="matrix(-0.8868407,0.46207529,-0.88998358,-0.45599257,0,0)" />
    <rect
       transform="matrix(-0.8868407,0.46207529,-0.88998358,-0.45599257,0,0)"
       ry="0"
       style="fill:#999999;stroke-width:0.21713743"
       y="-630.21143"
       x="302.34613"
       height="1.3764513"
       width="8"
       id="rect194" />
    <rect
       id="rect198"
       width="7.5"
       height="1.3764513"
       x="293.51968"
       y="-514.98175"
       style="fill:#999999;stroke-width:0.21713743"
       ry="0"
       transform="matrix(-0.8868407,0.46207529,-0.88998358,-0.45599257,0,0)" />
    <rect
       transform="matrix(-0.8868407,0.46207529,-0.88998358,-0.45599257,0,0)"
       ry="0"
       style="fill:#999999;stroke-width:0.21713743"
       y="-525.25677"
       x="293.68698"
       height="1.3764513"
       width="7.5"
       id="rect200" />
    <rect
       id="rect202"
       width="7.5"
       height="1.3764513"
       x="294.1644"
       y="-534.05695"
       style="fill:#999999;stroke-width:0.21713743"
       ry="0"
       transform="matrix(-0.8868407,0.46207529,-0.88998358,-0.45599257,0,0)" />
    <rect
       transform="matrix(-0.8868407,0.46207529,-0.88998358,-0.45599257,0,0)"
       ry="0"
       style="fill:#999999;stroke-width:0.21713743"
       y="-542.85699"
       x="294.64182"
       height="1.3764513"
       width="7.5"
       id="rect204" />
    <rect
       id="rect206"
       width="7.5"
       height="1.3764513"
       x="294.80914"
       y="-553.13208"
       style="fill:#999999;stroke-width:0.21713743"
       ry="0"
       transform="matrix(-0.8868407,0.46207529,-0.88998358,-0.45599257,0,0)" />
    <rect
       transform="matrix(-0.8868407,0.46207529,-0.88998358,-0.45599257,0,0)"
       ry="0"
       style="fill:#999999;stroke-width:0.21713743"
       y="-562.53198"
       x="294.69489"
       height="1.3764513"
       width="7.5"
       id="rect208" />
    <rect
       id="rect210"
       width="7.5"
       height="1.3764513"
       x="294.86227"
       y="-572.80707"
       style="fill:#999999;stroke-width:0.21713743"
       ry="0"
       transform="matrix(-0.8868407,0.46207529,-0.88998358,-0.45599257,0,0)" />
    <rect
       transform="matrix(-0.8868407,0.46207529,-0.88998358,-0.45599257,0,0)"
       ry="0"
       style="fill:#999999;stroke-width:0.21713743"
       y="-581.90686"
       x="295.04385"
       height="1.3764513"
       width="7.5"
       id="rect212" />
    <rect
       id="rect214"
       width="7.5"
       height="1.3764513"
       x="294.9296"
       y="-591.30676"
       style="fill:#999999;stroke-width:0.21713743"
       ry="0"
       transform="matrix(-0.8868407,0.46207529,-0.88998358,-0.45599257,0,0)" />
    <rect
       transform="matrix(-0.8868407,0.46207529,-0.88998358,-0.45599257,0,0)"
       ry="0"
       style="fill:#999999;stroke-width:0.21713743"
       y="-601.88165"
       x="294.80106"
       height="1.3764513"
       width="7.5"
       id="rect216" />
    <rect
       id="rect220"
       width="7.5"
       height="1.3764513"
       x="295.27847"
       y="-610.68195"
       style="fill:#999999;stroke-width:0.21713743"
       ry="0"
       transform="matrix(-0.8868407,0.46207529,-0.88998358,-0.45599257,0,0)" />
    <rect
       transform="matrix(-0.8868407,0.46207529,-0.88998358,-0.45599257,0,0)"
       ry="0"
       style="fill:#999999;stroke-width:0.21713743"
       y="-618.88263"
       x="296.34756"
       height="1.3764513"
       width="7.5"
       id="rect222" />
    <rect
       transform="matrix(-0.8868407,0.46207529,-0.88998358,-0.45599257,0,0)"
       ry="0"
       style="fill:#999999;stroke-width:0.21713743"
       y="-518.35193"
       x="286.75827"
       height="1.3764513"
       width="7.5"
       id="rect229" />
    <rect
       id="rect231"
       width="7.5"
       height="1.3764513"
       x="286.62976"
       y="-528.92682"
       style="fill:#999999;stroke-width:0.21713743"
       ry="0"
       transform="matrix(-0.8868407,0.46207529,-0.88998358,-0.45599257,0,0)" />
    <rect
       transform="matrix(-0.8868407,0.46207529,-0.88998358,-0.45599257,0,0)"
       ry="0"
       style="fill:#999999;stroke-width:0.21713743"
       y="-538.32672"
       x="286.5155"
       height="1.3764513"
       width="7.5"
       id="rect233" />
    <rect
       id="rect235"
       width="7.5"
       height="1.3764513"
       x="286.69711"
       y="-547.42682"
       style="fill:#999999;stroke-width:0.21713743"
       ry="0"
       transform="matrix(-0.8868407,0.46207529,-0.88998358,-0.45599257,0,0)" />
    <rect
       transform="matrix(-0.8868407,0.46207529,-0.88998358,-0.45599257,0,0)"
       ry="0"
       style="fill:#999999;stroke-width:0.21713743"
       y="-557.4021"
       x="287.16025"
       height="1.3764513"
       width="7.5"
       id="rect237" />
    <rect
       id="rect239"
       width="7.5"
       height="1.3764513"
       x="287.04602"
       y="-566.802"
       style="fill:#999999;stroke-width:0.21713743"
       ry="0"
       transform="matrix(-0.8868407,0.46207529,-0.88998358,-0.45599257,0,0)" />
    <rect
       transform="matrix(-0.8868407,0.46207529,-0.88998358,-0.45599257,0,0)"
       ry="0"
       style="fill:#999999;stroke-width:0.21713743"
       y="-577.35266"
       x="288.08655"
       height="1.3764513"
       width="7.5"
       id="rect241" />
    <rect
       id="rect243"
       width="7.5"
       height="1.3764513"
       x="287.67645"
       y="-587.05237"
       style="fill:#999999;stroke-width:0.21713743"
       ry="0"
       transform="matrix(-0.8868407,0.46207529,-0.88998358,-0.45599257,0,0)" />
    <rect
       transform="matrix(-0.8868407,0.46207529,-0.88998358,-0.45599257,0,0)"
       ry="0"
       style="fill:#999999;stroke-width:0.21713743"
       y="-597.02765"
       x="288.13962"
       height="1.3764513"
       width="7.5"
       id="rect245" />
    <rect
       id="rect247"
       width="7.5"
       height="1.3764513"
       x="288.02536"
       y="-606.42749"
       style="fill:#999999;stroke-width:0.21713743"
       ry="0"
       transform="matrix(-0.8868407,0.46207529,-0.88998358,-0.45599257,0,0)" />
    <rect
       transform="matrix(-0.8868407,0.46207529,-0.88998358,-0.45599257,0,0)"
       ry="0"
       style="fill:#999999;stroke-width:0.21713743"
       y="-615.22778"
       x="288.50281"
       height="1.3764513"
       width="7.5"
       id="rect249" />
    <rect
       id="rect251"
       width="7.5"
       height="1.3764513"
       x="288.3743"
       y="-625.80267"
       style="fill:#999999;stroke-width:0.21713743"
       ry="0"
       transform="matrix(-0.8868407,0.46207529,-0.88998358,-0.45599257,0,0)" />
    <rect
       id="rect253"
       width="7.5"
       height="1.3764513"
       x="278.64621"
       y="-512.64648"
       style="fill:#999999;stroke-width:0.21713743"
       ry="0"
       transform="matrix(-0.8868407,0.46207529,-0.88998358,-0.45599257,0,0)" />
    <rect
       transform="matrix(-0.8868407,0.46207529,-0.88998358,-0.45599257,0,0)"
       ry="0"
       style="fill:#999999;stroke-width:0.21713743"
       y="-520.57159"
       x="278.84207"
       height="1.3764513"
       width="7.5"
       id="rect255" />
    <rect
       id="rect257"
       width="7.5"
       height="1.3764513"
       x="278.72781"
       y="-529.9715"
       style="fill:#999999;stroke-width:0.21713743"
       ry="0"
       transform="matrix(-0.8868407,0.46207529,-0.88998358,-0.45599257,0,0)" />
    <rect
       transform="matrix(-0.8868407,0.46207529,-0.88998358,-0.45599257,0,0)"
       ry="0"
       style="fill:#999999;stroke-width:0.21713743"
       y="-539.64697"
       x="279.48679"
       height="1.3764513"
       width="7.5"
       id="rect259" />
    <rect
       id="rect261"
       width="7.5"
       height="1.3764513"
       x="279.9642"
       y="-548.44727"
       style="fill:#999999;stroke-width:0.21713743"
       ry="0"
       transform="matrix(-0.8868407,0.46207529,-0.88998358,-0.45599257,0,0)" />
    <rect
       transform="matrix(-0.8868407,0.46207529,-0.88998358,-0.45599257,0,0)"
       ry="0"
       style="fill:#999999;stroke-width:0.21713743"
       y="-557.84717"
       x="279.84995"
       height="1.3764513"
       width="7.5"
       id="rect263" />
    <rect
       id="rect265"
       width="7.5"
       height="1.3764513"
       x="279.72141"
       y="-568.42206"
       style="fill:#999999;stroke-width:0.21713743"
       ry="0"
       transform="matrix(-0.8868407,0.46207529,-0.88998358,-0.45599257,0,0)" />
    <rect
       transform="matrix(-0.8868407,0.46207529,-0.88998358,-0.45599257,0,0)"
       ry="0"
       style="fill:#999999;stroke-width:0.21713743"
       y="-578.69714"
       x="279.8887"
       height="1.3764513"
       width="7.5"
       id="rect267" />
    <rect
       id="rect269"
       width="7.5"
       height="1.3764513"
       x="280.07028"
       y="-587.79724"
       style="fill:#999999;stroke-width:0.21713743"
       ry="0"
       transform="matrix(-0.8868407,0.46207529,-0.88998358,-0.45599257,0,0)" />
    <rect
       transform="matrix(-0.8868407,0.46207529,-0.88998358,-0.45599257,0,0)"
       ry="0"
       style="fill:#999999;stroke-width:0.21713743"
       y="-598.07233"
       x="280.23758"
       height="1.3764513"
       width="7.5"
       id="rect271" />
    <rect
       id="rect273"
       width="7.5"
       height="1.3764513"
       x="280.70071"
       y="-608.04761"
       style="fill:#999999;stroke-width:0.21713743"
       ry="0"
       transform="matrix(-0.8868407,0.46207529,-0.88998358,-0.45599257,0,0)" />
    <rect
       transform="matrix(-0.8868407,0.46207529,-0.88998358,-0.45599257,0,0)"
       ry="0"
       style="fill:#999999;stroke-width:0.21713743"
       y="-618.32269"
       x="280.86801"
       height="1.3764513"
       width="7.5"
       id="rect275" />
    <rect
       id="rect277"
       width="7.5"
       height="1.3764513"
       x="281.33115"
       y="-628.29797"
       style="fill:#999999;stroke-width:0.21713743"
       ry="0"
       transform="matrix(-0.8868407,0.46207529,-0.88998358,-0.45599257,0,0)" />
    <rect
       transform="matrix(-0.8868407,0.46207529,-0.88998358,-0.45599257,0,0)"
       ry="0"
       style="fill:#999999;stroke-width:0.21713743"
       y="-628.29797"
       x="281.33115"
       height="1.3764513"
       width="7.5"
       id="rect279" />
  </g>
</svg>
